# xmcd
#
# Track frame offsets:
#	150
#	14322
#	26244
#	36037
#	45610
#	54722
#	64332
#	74057
#	84207
#	96727
#
# Disc length: 1441 seconds
#
# Revision: 2
# Processed by: cddbd v1.5.1PL0 Copyright (c) Steve Scherf et al.
# Submitted via: dBpowerAMP V4.0
#
DISCID=8e059f0a
DTITLE=The Stanley Brothers - The Best of the Best
DYEAR=1900
DGENRE=Bluegrass
TTITLE0=Rank Strangers to Me
TTITLE1=I'm a Man of Constant Sorrow
TTITLE2=Stone Walls and Steel Bars
TTITLE3=Think of What You've Done
TTITLE4=Let Me Rest
TTITLE5=How Mountain Girls Can Love
TTITLE6=If I Lose
TTITLE7=Love Me Darling Just Tonight
TTITLE8=Little Maggie
TTITLE9=Choo Choo Coming
EXTD=
EXTT0=
EXTT1=
EXTT2=
EXTT3=
EXTT4=
EXTT5=
EXTT6=
EXTT7=
EXTT8=
EXTT9=
PLAYORDER=
